G75*
%MOIN*%
%OFA0B0*%
%FSLAX25Y25*%
%IPPOS*%
%LPD*%
%AMOC8*
5,1,8,0,0,1.08239X$1,22.5*
%
%ADD10C,0.08200*%
%ADD11OC8,0.07800*%
%ADD12C,0.07800*%
D10*
X0121923Y0151800D03*
X0131923Y0151800D03*
X0141923Y0151800D03*
X0151923Y0151800D03*
X0161923Y0151800D03*
X0171923Y0151800D03*
X0181923Y0151800D03*
X0191923Y0151800D03*
X0201923Y0151800D03*
X0211923Y0151800D03*
X0221923Y0151800D03*
X0231923Y0151800D03*
X0241923Y0151800D03*
X0251923Y0151800D03*
X0261923Y0151800D03*
X0271923Y0151800D03*
X0281923Y0151800D03*
X0291923Y0151800D03*
X0301923Y0151800D03*
X0311923Y0151800D03*
X0311923Y0161800D03*
X0301923Y0161800D03*
X0291923Y0161800D03*
X0281923Y0161800D03*
X0271923Y0161800D03*
X0261923Y0161800D03*
X0251923Y0161800D03*
X0241923Y0161800D03*
X0231923Y0161800D03*
X0221923Y0161800D03*
X0211923Y0161800D03*
X0201923Y0161800D03*
X0191923Y0161800D03*
X0181923Y0161800D03*
X0171923Y0161800D03*
X0161923Y0161800D03*
X0151923Y0161800D03*
X0141923Y0161800D03*
X0131923Y0161800D03*
X0121923Y0161800D03*
D11*
X0381923Y0070800D03*
D12*
X0391923Y0070800D03*
X0401923Y0070800D03*
X0411923Y0070800D03*
X0421923Y0070800D03*
X0431923Y0070800D03*
X0441923Y0070800D03*
X0451923Y0070800D03*
M02*
